<?xml version="1.0" encoding="utf-8"?>
<!-- Generator: Adobe Illustrator 25.0.0, SVG Export Plug-In . SVG Version: 6.00 Build 0)  -->
<svg version="1.1" id="Layer_1" xmlns="http://www.w3.org/2000/svg" xmlns:xlink="http://www.w3.org/1999/xlink" x="0px" y="0px"
	 viewBox="0 0 50 50" style="enable-background:new 0 0 50 50;" xml:space="preserve">
<style type="text/css">
	.st0{fill:#FFFFFF;}
	.st1{fill:#353535;}
	.st2{fill:#5A5A5A;}
	.st3{fill:#1E1E1E;}
</style>
<g>
	<path class="st0" d="M2,16.7v26.7c0,1.2,1,2.2,2.2,2.2h41.5c1.2,0,2.2-1,2.2-2.2V16.7H2z"/>
	<path class="st1" d="M48,10.5c0-1.2-1-2.2-2.2-2.2h-5H9.2h-5C3,8.3,2,9.3,2,10.5v6.1h46V10.5z"/>
	<g>
		<rect x="18.2" y="20.7" class="st2" width="4.8" height="4.8"/>
		<rect x="27" y="20.7" class="st2" width="4.8" height="4.8"/>
		<rect x="35.7" y="20.7" class="st2" width="4.8" height="4.8"/>
		<rect x="9.5" y="29.1" class="st2" width="4.8" height="4.8"/>
		<rect x="18.2" y="29.1" class="st2" width="4.8" height="4.8"/>
		<rect x="27" y="29.1" class="st2" width="4.8" height="4.8"/>
		<rect x="35.7" y="29.1" class="st2" width="4.8" height="4.8"/>
		<rect x="9.5" y="37.5" class="st2" width="4.8" height="4.8"/>
		<rect x="18.2" y="37.5" class="st2" width="4.8" height="4.8"/>
		<rect x="27" y="37.5" class="st2" width="4.8" height="4.8"/>
	</g>
	<g>
		<path class="st3" d="M13.1,6.3v4.1c0,1.1-0.9,1.9-1.9,1.9c-1.1,0-1.9-0.9-1.9-1.9V6.3c0-1.1,0.9-1.9,1.9-1.9c0.5,0,1,0.2,1.4,0.6
			C12.8,5.3,13.1,5.8,13.1,6.3z"/>
		<path class="st3" d="M22.3,6.3v4.1c0,1.1-0.9,1.9-1.9,1.9c-1.1,0-1.9-0.9-1.9-1.9V6.3c0-1.1,0.9-1.9,1.9-1.9c0.5,0,1,0.2,1.4,0.6
			C22.1,5.3,22.3,5.8,22.3,6.3z"/>
		<path class="st3" d="M31.5,6.3v4.1c0,1.1-0.9,1.9-1.9,1.9c-1.1,0-1.9-0.9-1.9-1.9V6.3c0-1.1,0.9-1.9,1.9-1.9c0.5,0,1,0.2,1.4,0.6
			C31.3,5.3,31.5,5.8,31.5,6.3z"/>
		<path class="st3" d="M40.8,6.3v4.1c0,1.1-0.9,1.9-1.9,1.9c-1.1,0-1.9-0.9-1.9-1.9V6.3c0-1.1,0.9-1.9,1.9-1.9c0.5,0,1,0.2,1.4,0.6
			C40.6,5.3,40.8,5.8,40.8,6.3z"/>
	</g>
	<g>
		<path class="st2" d="M45.8,7.6h-4.2V6.3c0-0.7-0.3-1.4-0.8-1.9s-1.2-0.8-1.9-0.8c-1.5,0-2.7,1.2-2.7,2.7v1.2h-3.9V6.3
			c0-0.7-0.3-1.4-0.8-1.9s-1.2-0.8-1.9-0.8c-1.5,0-2.7,1.2-2.7,2.7v1.2H23V6.3c0-0.7-0.3-1.4-0.8-1.9S21,3.6,20.3,3.6
			c-1.5,0-2.7,1.2-2.7,2.7v1.2h-3.9V6.3c0-0.7-0.3-1.4-0.8-1.9S11.7,3.6,11,3.6c-1.5,0-2.7,1.2-2.7,2.7v1.2H4.2c-1.6,0-3,1.3-3,3
			v32.8c0,1.6,1.3,3,3,3h41.5c1.6,0,3-1.3,3-3V10.5C48.8,8.9,47.4,7.6,45.8,7.6z M37.7,6.3c0-0.7,0.5-1.2,1.2-1.2
			c0.4,0,0.7,0.2,0.8,0.3C39.9,5.6,40,5.8,40,6.2v2l0,0l0,0v2.2c0,0.6-0.5,1.2-1.2,1.2s-1.2-0.5-1.2-1.2V6.3H37.7z M28.5,6.3
			c0-0.7,0.5-1.2,1.2-1.2c0.4,0,0.7,0.2,0.8,0.3c0.2,0.2,0.4,0.4,0.4,0.8v2l0,0l0,0v2.2c0,0.6-0.5,1.2-1.2,1.2s-1.2-0.5-1.2-1.2
			C28.5,10.4,28.5,6.3,28.5,6.3z M20.4,5.2c0.4,0,0.7,0.2,0.8,0.3c0.2,0.2,0.4,0.4,0.4,0.8v4.2c0,0.6-0.5,1.2-1.2,1.2
			s-1.2-0.5-1.2-1.2V8.3l0,0l0,0v-2C19.2,5.7,19.7,5.2,20.4,5.2z M11.1,5.2c0.4,0,0.7,0.2,0.8,0.3c0.2,0.2,0.4,0.4,0.4,0.8v4.2
			c0,0.6-0.5,1.2-1.2,1.2c-0.6,0-1.2-0.5-1.2-1.2V8.3l0,0l0,0v-2C9.9,5.7,10.5,5.2,11.1,5.2z M4.2,9.1h4.2v1.4
			c0,1.5,1.2,2.7,2.7,2.7s2.7-1.2,2.7-2.7V9.1h3.9v1.4c0,1.5,1.2,2.7,2.7,2.7s2.7-1.2,2.7-2.7V9.1H27v1.4c0,1.5,1.2,2.7,2.7,2.7
			s2.7-1.2,2.7-2.7V9.1h3.9v1.4c0,1.5,1.2,2.7,2.7,2.7s2.7-1.2,2.7-2.7V9.1h4.2c0.8,0,1.5,0.7,1.5,1.5V16H2.8v-5.4
			C2.8,9.7,3.4,9.1,4.2,9.1z M45.8,44.8H4.2c-0.8,0-1.5-0.7-1.5-1.5v-26h44.5v26C47.2,44.2,46.6,44.8,45.8,44.8z"/>
		<path class="st2" d="M23,20h-4.8c-0.4,0-0.8,0.3-0.8,0.8v4.8c0,0.4,0.3,0.8,0.8,0.8H23c0.4,0,0.8-0.3,0.8-0.8v-4.8
			C23.8,20.3,23.4,20,23,20z M22.3,24.8H19v-3.3h3.3V24.8L22.3,24.8z"/>
		<path class="st2" d="M31.8,20H27c-0.4,0-0.8,0.3-0.8,0.8v4.8c0,0.4,0.3,0.8,0.8,0.8h4.8c0.4,0,0.8-0.3,0.8-0.8v-4.8
			C32.5,20.3,32.2,20,31.8,20z M31,24.8h-3.3v-3.3H31V24.8z"/>
		<path class="st2" d="M40.5,20h-4.8c-0.4,0-0.8,0.3-0.8,0.8v4.8c0,0.4,0.3,0.8,0.8,0.8h4.8c0.4,0,0.8-0.3,0.8-0.8v-4.8
			C41.2,20.3,40.9,20,40.5,20z M39.7,24.8h-3.3v-3.3h3.3V24.8z"/>
		<path class="st2" d="M14.3,28.4H9.5c-0.4,0-0.8,0.3-0.8,0.8V34c0,0.4,0.3,0.8,0.8,0.8h4.8c0.4,0,0.8-0.3,0.8-0.8v-4.8
			C15,28.7,14.7,28.4,14.3,28.4z M13.5,33.1h-3.3v-3.3h3.3C13.5,29.9,13.5,33.1,13.5,33.1z"/>
		<path class="st2" d="M23,28.4h-4.8c-0.4,0-0.8,0.3-0.8,0.8V34c0,0.4,0.3,0.8,0.8,0.8H23c0.4,0,0.8-0.3,0.8-0.8v-4.8
			C23.8,28.7,23.4,28.4,23,28.4z M22.3,33.1H19v-3.3h3.3V33.1L22.3,33.1z"/>
		<path class="st2" d="M31.8,28.4H27c-0.4,0-0.8,0.3-0.8,0.8V34c0,0.4,0.3,0.8,0.8,0.8h4.8c0.4,0,0.8-0.3,0.8-0.8v-4.8
			C32.5,28.7,32.2,28.4,31.8,28.4z M31,33.1h-3.3v-3.3H31V33.1z"/>
		<path class="st2" d="M40.5,28.4h-4.8c-0.4,0-0.8,0.3-0.8,0.8V34c0,0.4,0.3,0.8,0.8,0.8h4.8c0.4,0,0.8-0.3,0.8-0.8v-4.8
			C41.2,28.7,40.9,28.4,40.5,28.4z M39.7,33.1h-3.3v-3.3h3.3V33.1z"/>
		<path class="st2" d="M14.3,36.7H9.5c-0.4,0-0.8,0.3-0.8,0.8v4.8c0,0.4,0.3,0.8,0.8,0.8h4.8c0.4,0,0.8-0.3,0.8-0.8v-4.8
			C15,37.1,14.7,36.7,14.3,36.7z M13.5,41.5h-3.3v-3.3h3.3V41.5z"/>
		<path class="st2" d="M23,36.7h-4.8c-0.4,0-0.8,0.3-0.8,0.8v4.8c0,0.4,0.3,0.8,0.8,0.8H23c0.4,0,0.8-0.3,0.8-0.8v-4.8
			C23.8,37.1,23.4,36.7,23,36.7z M22.3,41.5H19v-3.3h3.3V41.5L22.3,41.5z"/>
		<path class="st2" d="M31.8,36.7H27c-0.4,0-0.8,0.3-0.8,0.8v4.8c0,0.4,0.3,0.8,0.8,0.8h4.8c0.4,0,0.8-0.3,0.8-0.8v-4.8
			C32.5,37.1,32.2,36.7,31.8,36.7z M31,41.5h-3.3v-3.3H31V41.5z"/>
	</g>
</g>
</svg>
