<?xml version="1.0" encoding="utf-8"?>
<!-- Generator: Adobe Illustrator 25.0.0, SVG Export Plug-In . SVG Version: 6.00 Build 0)  -->
<svg version="1.1" id="Camada_1" xmlns="http://www.w3.org/2000/svg" xmlns:xlink="http://www.w3.org/1999/xlink" x="0px" y="0px"
	 viewBox="0 0 284 147" style="enable-background:new 0 0 284 147;" xml:space="preserve">
<style type="text/css">
	.st0{fill:none;stroke:#FFE886;stroke-width:2;stroke-linecap:round;stroke-miterlimit:10;stroke-dasharray:4;}
	.st1{fill:#FFE886;}
</style>
<path class="st0" d="M41,111.5l10.3,4.6c21.1,9.5,43.3,16.2,66.2,19.8l24.6,3.9c80.5,9.5,125.8-26.2,164.5-134.3l32.2-14.6L331,11.5
	"/>
<g>
	<path class="st1" d="M42.9,108.7l3.6-5.8c0,0,0,0,0-0.1c1.6-2.6,1.3-6.1-1.5-8.6c-0.1,0-0.1-0.1-0.2-0.1c-5-3-10.3,0.6-10.3,5.3
		c0,1.2,0.3,2.3,1,3.4c0,0,0,0,0,0.1l3.5,5.8c-2.7,0.4-4.5,1.5-4.5,2.8c0,1.7,2.8,3,6.5,3c3.6,0,6.5-1.3,6.5-3
		C47.5,110.2,45.6,109.1,42.9,108.7z M36.2,102.5c-1.5-2.3-1.2-5.5,1.4-7.7c0,0,0,0,0,0c4.5-2.7,9.1,0.5,9.1,4.7
		c0,1.1-0.3,2.1-0.9,3c0,0,0,0,0,0.1l-3.8,6.1c-0.1,0.1-0.1,0.1-0.1,0.2l-1,1.6L36.2,102.5C36.2,102.6,36.2,102.6,36.2,102.5z
		 M41,113.8c-3.4,0-5.7-1.2-5.7-2.3c0-1,1.8-1.9,4.2-2.2l1.2,2c0.1,0.1,0.2,0.2,0.3,0.2c0,0,0,0,0,0c0.1,0,0.2-0.1,0.3-0.2l1.2-2
		c2.4,0.3,4.3,1.2,4.3,2.2C46.7,112.7,44.4,113.8,41,113.8z"/>
	<path class="st1" d="M42.7,101.2c1.9-2.5-0.9-5.4-3.4-3.4C37.4,100.3,40.2,103.1,42.7,101.2z M39.4,99.5c0-0.9,0.7-1.6,1.6-1.6
		c0.9,0,1.6,0.7,1.6,1.6c0,0.9-0.7,1.6-1.6,1.6S39.4,100.4,39.4,99.5z"/>
</g>
</svg>
