<?xml version="1.0" encoding="utf-8"?>
<!-- Generator: Adobe Illustrator 25.0.0, SVG Export Plug-In . SVG Version: 6.00 Build 0)  -->
<svg version="1.1" id="Capa_1" xmlns="http://www.w3.org/2000/svg" xmlns:xlink="http://www.w3.org/1999/xlink" x="0px" y="0px"
	 viewBox="0 0 512 512" style="enable-background:new 0 0 512 512;" xml:space="preserve">
<style type="text/css">
	.st0{fill:#FFE785;}
</style>
<g>
	<g>
		<g>
			<path class="st0" d="M236,132c-5.5,0-10,4.5-10,10v320c0,5.5,4.5,10,10,10s10-4.5,10-10V142C246,136.5,241.5,132,236,132z"/>
			<path class="st0" d="M136,352h0.2c5.5,0,10-4.5,10-10c0-5.5-4.5-10-10-10H136c-5.5,0-10,4.5-10,10C126,347.5,130.5,352,136,352z"
				/>
			<path class="st0" d="M286,171c0-5.5-4.5-10-10-10s-10,4.5-10,10v31l0,260c0,5.5,4.5,10,10,10c5.5,0,10-4.5,10-10l0-260V171z"/>
			<path class="st0" d="M276,152.2c5.5,0,10-4.5,10-10V142c0-5.5-4.5-10-10-10s-10,4.5-10,10v0.2C266,147.8,270.5,152.2,276,152.2z"
				/>
			<path class="st0" d="M36.2,492H36c-5.5,0-10,4.5-10,10s4.5,10,10,10h0.2c5.5,0,10-4.5,10-10S41.8,492,36.2,492z"/>
			<path class="st0" d="M476,492h-0.2c-5.5,0-10,4.5-10,10s4.5,10,10,10h0.2c5.5,0,10-4.5,10-10S481.5,492,476,492z"/>
			<path class="st0" d="M447,492h-41v-21c22.8-4.6,40-24.8,40-49c0-27.6-22.4-50-50-50s-50,22.4-50,50c0,24.1,17.2,44.4,40,49v21
				h-60V102c0-5.5-4.5-10-10-10h-10V62c0-5.5-4.5-10-10-10h-1.3C291.1,38,280,26.9,266,23.3V10c0-5.5-4.5-10-10-10
				c-5.5,0-10,4.5-10,10v13.3C232,26.9,220.9,38,217.3,52H216c-5.5,0-10,4.5-10,10v30h-10c-5.5,0-10,4.5-10,10v190H76
				c-5.5,0-10,4.5-10,10v190h-1c-5.5,0-10,4.5-10,10s4.5,10,10,10h11h120h120h131c5.5,0,10-4.5,10-10S452.6,492,447,492z M186,332
				h-21c-5.5,0-10,4.5-10,10c0,5.5,4.5,10,10,10h21v20h-50c-5.5,0-10,4.5-10,10s4.5,10,10,10h50v20h-50c-5.5,0-10,4.5-10,10
				c0,5.5,4.5,10,10,10h50v20h-50c-5.5,0-10,4.5-10,10c0,5.5,4.5,10,10,10h50v20H86V312h100V332z M256,42c7.4,0,13.8,4,17.3,10
				h-34.6C242.2,46,248.6,42,256,42z M226,72h60v20h-60V72z M306,492H206V302V112h10h80h10V492z M396,432c-5.5,0-10,4.5-10,10v8.3
				c-11.6-4.1-20-15.2-20-28.3c0-16.5,13.5-30,30-30c16.5,0,30,13.5,30,30c0,13-8.4,24.2-20,28.3V442C406,436.5,401.5,432,396,432z"
				/>
		</g>
	</g>
</g>
</svg>
