<?xml version="1.0" encoding="utf-8"?>
<!-- Generator: Adobe Illustrator 25.0.0, SVG Export Plug-In . SVG Version: 6.00 Build 0)  -->
<svg version="1.1" id="Layer_1" xmlns="http://www.w3.org/2000/svg" xmlns:xlink="http://www.w3.org/1999/xlink" x="0px" y="0px"
	 viewBox="0 0 66 66" style="enable-background:new 0 0 66 66;" xml:space="preserve">
<style type="text/css">
	.st0{fill:#FFE785;}
</style>
<g>
	<path class="st0" d="M14.3,7.5c0,3.3-2.7,6-6,6s-6-2.7-6-6s2.7-6,6-6S14.3,4.2,14.3,7.5z"/>
	<path class="st0" d="M49,9.6c0,3.3-2.7,6-6,6s-6-2.7-6-6s2.7-6,6-6C46.3,3.6,49,6.2,49,9.6z"/>
	<path class="st0" d="M65,29.4c-0.3-1-1.9-2.6-3.9-3.4c-1.5-0.6-3.9-1.1-6.5,0.3c-0.4,0.2-0.7,0.5-1.1,0.8c-0.3-1-1-2-2-2.5
		l-12.6-8.9l0,0l0,0c-1.1-0.6-2.3-0.9-3.6-0.9h-0.1c-3.7,0.4-6.6,2.7-8.5,6.6l-15.2-5.9l0,0c-1-0.4-2-0.7-3.1-0.7
		C4.3,14.7,1,18,1,22v17.8l0,0l0,0l0.7,20.8c0.1,2.1,1.8,3.8,3.9,3.8h0.1c2.1,0,3.9-1.7,3.9-3.8l0.2-7.2l5,7.4
		c0.7,1,1.9,1.6,3.2,1.6c1.4,0,2.6-0.7,3.3-1.8c0.7-1.1,0.8-2.6,0.2-3.8l-7.6-17.1L15.3,26l9.1,2.6l0,0C23.5,34.3,24,39.7,24,39.9
		l0,0l0.7,20.7c0.1,2.1,1.8,3.8,3.9,3.8h0.1c2.1,0,3.9-1.7,3.9-3.8l0.2-7.2l5,7.4c0.7,1,1.9,1.6,3.2,1.6c1.4,0,2.6-0.7,3.3-1.8
		s0.8-2.6,0.2-3.8l-7.6-17.1c0.7-5.9,2.2-10.3,4.3-13.1l6,4.2c-0.2,0-0.4,0.1-0.6,0.1c-0.3,0-0.7,0.2-0.8,0.6
		c-0.2,0.3-0.1,0.7,0.1,1c0.9,1.4,2.2,2.3,3.7,2.7c0.5,0.1,1.1,0.2,1.6,0.2v25.3c0,1.9,1.6,3.5,3.5,3.5s3.5-1.6,3.5-3.5V33
		c0-1,0.8-1.8,1.8-1.9l4-0.5c0.3,0,0.6-0.2,0.7-0.4C65,30,65,29.7,65,29.4z M19.9,57.6c0.3,0.6,0.2,1.3-0.1,1.9
		c-0.4,0.6-1,0.9-1.6,0.9s-1.2-0.3-1.5-0.8L3.9,40.8h8.5L19.9,57.6z M25.1,26.7C25.1,26.7,25,26.7,25.1,26.7l-10.3-2.9l-2.3-1
		c-0.5-0.2-1.1,0-1.3,0.5s0,1.1,0.5,1.3l1.7,0.7l-1.2,13.5H3V22c0-2.9,2.4-5.3,5.3-5.3c0.9,0,1.8,0.2,2.6,0.7
		c0.1,0.1,0.3,0.1,0.4,0.1l15.3,5.9c0.1,0,0.1,0.1,0.2,0.1l0,0l0,0c0.6,0.4,0.9,1.2,0.7,1.9c-0.1,0.5-0.5,0.9-0.9,1.1
		C26.1,26.9,25.6,26.9,25.1,26.7z M42.9,57.6c0.3,0.6,0.2,1.3-0.1,1.9c-0.4,0.6-1,0.9-1.6,0.9s-1.2-0.3-1.5-0.8L26.9,40.8h8.5
		L42.9,57.6z M39.6,22.9c-0.4-0.3-1.1-0.2-1.4,0.2c-0.3,0.4-0.2,1.1,0.2,1.4l1.3,0.9c-2.3,3-3.8,7.4-4.6,13.4H26
		c-0.1-1.8-0.2-5.9,0.5-10.1c0.4-0.1,0.7-0.2,1-0.3c1-0.5,1.7-1.4,2-2.4c0.4-1.3-0.1-2.7-1-3.7c1.6-3.3,3.9-5.2,6.9-5.6
		c0.9,0,1.7,0.2,2.5,0.7l12.6,8.9c0.1,0,0.1,0.1,0.1,0.1c0.8,0.4,1.2,1.2,1,2.1c-0.1,0.5-0.5,0.9-0.9,1.1s-0.9,0.3-1.4,0.1
		L39.6,22.9z"/>
</g>
</svg>
