<?xml version="1.0" encoding="utf-8"?>
<!-- Generator: Adobe Illustrator 25.0.0, SVG Export Plug-In . SVG Version: 6.00 Build 0)  -->
<svg version="1.1" id="Layer_5" xmlns="http://www.w3.org/2000/svg" xmlns:xlink="http://www.w3.org/1999/xlink" x="0px" y="0px"
	 viewBox="0 0 100 100" style="enable-background:new 0 0 100 100;" xml:space="preserve">
<style type="text/css">
	.st0{fill:#FFFFFF;stroke:#000000;stroke-miterlimit:10;}
	.st1{fill:#1050E0;}
</style>
<circle class="st0" cx="50" cy="50.3" r="41.2"/>
<path class="st1" d="M50,5C25.1,5,5,25.1,5,50s20.1,45,45,45s45-20.1,45-45S74.9,5,50,5z M49.5,24.3c0.1-0.6,0.7-0.9,0.8-0.9
	c0.3-0.1,0.5-0.1,1-0.2c0,0,0.4,0,0.7,0c11.9,0.3,22.2,8.8,23.7,21.6c0.1,0.9,0.3,1.9,0.3,3.9c0,0.4,0,1.2-0.5,1.7
	c-0.2,0.2-0.5,0.3-0.7,0.4c-0.3-0.1-0.7-0.2-1-0.5c-0.4-0.5-0.4-1.1-0.5-1.3c-0.1-2.3-0.5-4.6-1-6.9c-2-8.4-9.6-15-18.2-16
	c-1-0.1-2-0.2-3-0.3c-0.7,0-1.4-0.2-1.6-0.6C49.3,24.8,49.4,24.4,49.5,24.3z M54.1,32.2c0,0-0.5,0-1.1-0.2c-0.5-0.1-0.8-0.2-1.1-0.6
	c-0.3-0.3-0.3-0.7-0.4-1c0.1-0.2,0.2-0.5,0.5-0.8c0.4-0.3,0.9-0.3,1.2-0.3c7,0.4,11.2,4.4,11.2,4.4c0.4,0.4,1.9,1.9,3.2,4.3
	c1.6,2.9,2,5.7,2.2,7.4c0,0.4,0,1-0.2,1.5c-0.1,0.2-0.2,0.5-0.5,0.7c-0.5,0.4-0.8,0.4-1,0.4c-0.2-0.1-0.4-0.2-0.6-0.4
	c-0.3-0.3-0.4-0.6-0.4-0.7c-0.4-3.2-0.9-6.4-2.9-9.1C61.7,34.4,58.2,32.9,54.1,32.2z M63.3,44.5c-0.1,0.9-0.4,1.3-0.5,1.4
	c-0.3,0.2-0.6,0.3-0.8,0.3s-0.6-0.1-0.8-0.4c-0.4-0.4-0.4-0.9-0.5-1.1c-0.1-0.8-0.7-3.4-2-4.6c-0.8-0.7-2-1.1-3.6-1.4
	c-0.7-0.1-1.3-0.2-1.6-0.7c-0.2-0.3-0.1-0.7,0-0.8c0.3-0.9,1.3-1.1,1.4-1.2c0.7,0.1,5.3,0.8,7.3,4.2C63.4,42,63.3,43.9,63.3,44.5z
	 M75.8,69.5c-1.7,2.1-3.4,4.3-5.4,6c-1.7,1.5-4,1.7-6.3,0.8c-18.6-7.6-31.9-20.5-39.5-39.1c-0.2-0.5-0.3-0.9-0.5-1.4
	c-1.4-4.2-1-5.8,2.4-8.6c1.1-0.9,2.3-1.7,3.5-2.5c2-1.3,4.3-1.3,5.8,0.5c2.6,3.1,5,6.3,7.1,9.7c1.6,2.6,1,4-1.3,5.9
	c-0.5,0.4-1.1,0.8-1.6,1.3c-1.3,1.1-1.9,2.4-1.3,4.2c2.6,7.7,8,12.6,15.5,15.1c0.9,0.3,2.2-0.4,3.2-0.9c0.7-0.4,1.1-1.3,1.7-2
	c1.5-1.9,3.9-2.7,5.9-1.4c3.6,2.3,7,4.8,10.3,7.3c0.7,0.6,0.9,1.8,1.3,2.7C76.3,68.1,76.3,69,75.8,69.5z"/>
</svg>
